<?xml version='1.0' encoding='UTF-8'?>
<svg id="Layer_4" xmlns="http://www.w3.org/2000/svg" viewBox="279.78 272.69 318.08 204.25">
  <defs>
    <style>.cls-5 { fill: #e5261f; }</style>
  </defs>
  <path class="cls-5" d="M460.68,281.05c-4.08,5.58,6.06,14.68,10.64,18.77,8.95,7.71,17.87,15.6,26.66,23.52,22.79,19.86,44.88,40.83,68.42,59.65,3.43,2.32,7,4.1,10.45,4.85,9.8,2.36,16.01-3.95,10.47-12.89-2.35-3.88-6.54-7.75-10.35-10.82-26.12-20.86-52.1-41.88-78.34-62.52-6.69-5.23-13.05-10.93-19.89-15.84-4.81-3.22-13.01-8.08-17.94-4.83l-.12.12Z" />
  <path class="cls-5" d="M363.89,331.24c-8.26,9.15-5.73,17.73,4.02,24.62,30.68,20.44,63.18,38.31,95.03,56.79,12.05,6.95,24.07,13.95,36.09,20.96,4.92,2.85,10,5.93,15.2,7.88,7.65,2.91,15.49,2.92,22.48-.9,11.01-6.06,23.49-21.29,13.01-32.53-3.41-3.87-9.03-6.99-13.87-9.66-8.56-4.68-17.17-9.39-25.72-14.1-37.61-20.41-74.38-42.62-113.25-60.42-11.82-4.84-24.3-2.21-32.74,7.1l-.24.27Z" />
  <path class="cls-5" d="M286.99,390.98c1.9,2.94,9.18,7.04,13.61,8.94,8.35,3.62,16.87,7.12,25.31,10.63,49.87,20.71,100.65,39.54,152.13,55.81,21.77,5.58,20.84-3.9,1.66-10.15-51.13-14.83-101.61-32.31-150.92-52.58-9.46-3.84-18.78-8.12-28.19-12.03-3.05-1.27-15.81-5.46-13.68-.75l.08.13Z" />
</svg>