<?xml version="1.0" encoding="UTF-8"?><svg id="Layer_4" xmlns="http://www.w3.org/2000/svg" viewBox="106 145 509 375"><defs><style>.cls-1,.cls-2,.cls-3{isolation:isolate;}.cls-1,.cls-2,.cls-4{fill:#6d6c6c;}.cls-1,.cls-3{opacity:.2;}.cls-2{opacity:.4;}.cls-5{fill:#e5261f;}</style></defs><path class="cls-2" d="M320.2,457.5c-6.45,1.02-13.04,24.35-13.04,24.35,0,0,8.47-.12,28.55-8.54,26.19-10.98,35.39-19.14,35.39-19.14,0,0-5.96-3.77-50.9,3.33Z"/><path class="cls-2" d="M553.71,275.53c-5.85,2.91-45.65,22.8-45.65,22.8,0,0,26.15,21.49,28.57,23.06,3.48,2.25,11.76-20.96,33.68-29.22s24.58-14.93,27.15-23.49c3.23-10.74-34.64,2.28-43.75,6.85Z"/><path class="cls-2" d="M479.61,339.84c-6.2-2.05-17.62,8.35-17.62,8.35,0,0,27.46,16.43,29.88,18,3.48,2.25,16.2-16.22,16.2-16.22,0,0-14.28-5.45-28.46-10.13Z"/><path class="cls-2" d="M368.89,379.84c-6.23-1.98-14.33,22.61-14.33,22.61l51.11,18.67,3.06-2.99s-12.08-29.47-39.84-38.3Z"/><path class="cls-2" d="M441.17,425.11c-6.23-1.98-16.19,3.16-16.19,3.16,0,0,45.42,15.57,47.84,17.14,3.48,2.25,6.32-1.45,6.32-1.45,0,0-10.22-10.02-37.98-18.84Z"/><path class="cls-5" d="M460.68,281.05c-4.08,5.58,6.06,14.68,10.64,18.77,8.95,7.71,17.87,15.6,26.66,23.52,22.79,19.86,44.88,40.83,68.42,59.65,3.43,2.32,7,4.1,10.45,4.85,9.8,2.36,16.01-3.95,10.47-12.89-2.35-3.88-6.54-7.75-10.35-10.82-26.12-20.86-52.1-41.88-78.34-62.52-6.69-5.23-13.05-10.93-19.89-15.84-4.81-3.22-13.01-8.08-17.94-4.83l-.12.12Z"/><path class="cls-5" d="M363.89,331.24c-8.26,9.15-5.73,17.73,4.02,24.62,30.68,20.44,63.18,38.31,95.03,56.79,12.05,6.95,24.07,13.95,36.09,20.96,4.92,2.85,10,5.93,15.2,7.88,7.65,2.91,15.49,2.92,22.48-.9,11.01-6.06,23.49-21.29,13.01-32.53-3.41-3.87-9.03-6.99-13.87-9.66-8.56-4.68-17.17-9.39-25.72-14.1-37.61-20.41-74.38-42.62-113.25-60.42-11.82-4.84-24.3-2.21-32.74,7.1l-.24.27Z"/><path class="cls-5" d="M286.99,390.98c1.9,2.94,9.18,7.04,13.61,8.94,8.35,3.62,16.87,7.12,25.31,10.63,49.87,20.71,100.65,39.54,152.13,55.81,21.77,5.58,20.84-3.9,1.66-10.15-51.13-14.83-101.61-32.31-150.92-52.58-9.46-3.84-18.78-8.12-28.19-12.03-3.05-1.27-15.81-5.46-13.68-.75l.08.13Z"/><path d="M331.29,276.23c-3.18-5.83-3.25-12.85-2.97-19.31.31-7.14.62-14.61,2.99-21.42.48-1.39,1-3.21,2.06-4.28,1.21-1.22,2.53,1.44,3.11,2.34,1.72,2.68,2.91,5.64,3.68,8.72,1.69,6.77,1.38,13.89.38,20.73-.63,4.34-1.64,8.63-2.2,12.98s-.82,8.79-1.19,13.2c-.04.48.73.49.75,0,.19-4.53,1.4-9.01,2.51-13.4,1.06-4.22,1.85-8.56,2.53-12.86,1.18-7.46,1.57-15.19-.41-22.55-.93-3.48-2.42-6.86-4.53-9.79-1.03-1.43-2.27-2.89-4.21-2.78-1.62.09-2.84,1.35-3.63,2.66-2.04,3.37-3.06,7.56-3.79,11.39-.76,3.97-1.14,8.01-1.51,12.03s-.63,8.37-.04,12.57,2.01,7.8,4.92,10.94c.78.84,2.07-.23,1.55-1.19h0Z"/><path d="M336.83,375.41c.72-.56,1.42-1.06,1.98-1.79.46-.6.87-1.25,1.3-1.87,1.04-1.5,2.1-2.98,3.07-4.52,1.84-2.94,3.49-6.04,4.99-9.16,3.02-6.25,5.27-12.82,6.06-19.73.78-6.77.13-13.48-2.26-19.87-2.14-5.72-5.63-11.3-6.1-17.51-.54-7.18,3.54-14.34.45-21.32-.62-1.39-3.03-.4-2.48,1.05,2.3,6.12-1.67,12.45-1.86,18.62s2.49,12.14,5.01,17.6c2.72,5.91,4.63,11.94,4.16,18.53-.47,6.65-2.58,13.11-5.46,19.08-1.64,3.4-3.52,6.69-5.51,9.9-.96,1.55-1.83,3.14-2.76,4.71-.46.78-.94,1.55-1.39,2.34-.53.93-.75,1.86-1,2.89-.28,1.13.99,1.68,1.8,1.05h0Z"/><path d="M324.93,313.26c-.31-1.62-.38-3.2-.37-4.84,0-1.73-.23-3.45-.18-5.18.09-3.39.36-6.79.67-10.17.5-5.63.9-11.35-.63-16.87-1.42-5.1-3.88-10.62-9.13-12.75-2.69-1.09-5.84-.83-8.01,1.2-1.8,1.67-2.65,4.19-3.01,6.55-.46,2.97-.35,5.97-.37,8.97-.02,3.73-.03,7.45-.05,11.18-.03,7.13.08,14.36-2.13,21.23-1.07,3.32-2.46,6.53-3.24,9.94s-1.09,7.06-1.22,10.62c-.24,6.56.34,13.08,1.32,19.56,1.1,7.23,3.37,14.34,6.22,21.06,1.44,3.4,3.08,6.72,4.92,9.92,1.26,2.19,3.3,6.92,6.57,5.35,1.25-.6.16-2.47-1.09-1.86-.97.47-2.43-2.52-2.76-3.07-.83-1.36-1.62-2.75-2.37-4.15-1.46-2.73-2.79-5.53-3.96-8.4-2.31-5.68-3.84-11.52-5.1-17.5s-1.71-12.17-1.56-18.3c.08-3.26.28-6.54.82-9.75s1.61-6.36,2.79-9.45,2.18-6.11,2.73-9.34.78-6.44.9-9.69c.24-6.75.31-13.51.45-20.26.08-3.65-.02-10.8,5.04-11.25,2.66-.23,5.22,1.57,6.94,3.42s2.9,4.12,3.4,6.56c1.2,5.92.22,11.91-.73,17.78-.56,3.45-1.08,6.86-.92,10.36.08,1.69.14,3.54.78,5.12s1.38,3.03,2.32,4.43c.33.49,1.05.18.94-.4h0Z"/><path d="M327.09,390.89c.5-1.21.92-2.35,1.17-3.64.27-1.41.5-2.82.71-4.24.38-2.56.69-5.13.78-7.73.2-5.38-.22-10.69-.51-16.06s.44-10.39,1.71-15.57c1.17-4.79,2.53-9.55,3-14.48.48-5.06.24-10.85-2.21-15.42-.65-1.21-2.42-.84-2.8.37s.06,2.62,1.24,3.24c.75.4,1.55-.4,1.15-1.15-.18-.34-.1-.39.16-.6l-2.41-.31c1.12,1.97,1.98,3.96,2.47,6.19s.45,4.71.25,7.05c-.43,4.94-1.87,9.71-3.08,14.5s-2.1,9.72-2,14.74.57,10.37.4,15.58c-.1,2.87-.25,5.75-.48,8.61s-.7,5.81-.68,8.77c0,.68.88.71,1.1.15h0Z"/><path d="M405.23,223.93c.66-.43,1.2-.82,1.5-1.57.36-.9.55-1.88.67-2.84.22-1.78.1-3.59-.34-5.33-.87-3.4-3.33-7.34-6.89-8.39s-6.06,1.95-7.06,5.03c-.63,1.92-.78,3.96-1.02,5.95-.31,2.53-.61,5.06-.89,7.59-2.21,19.65-3.25,39.89.78,59.38,2.1,10.14,5.37,20.41,11.1,29.1.44.66,1.38.09,1.05-.62-3.59-7.64-6.67-15.47-8.63-23.7s-3.01-16.66-3.38-25.1c-.41-9.26-.01-18.54.76-27.78.39-4.66.82-9.33,1.31-13.98.24-2.29.49-4.57.74-6.85.17-1.53.44-3.11,1.1-4.51.76-1.6,2.11-2.76,3.95-1.94s3.13,2.62,3.97,4.31,1.2,3.47,1.19,5.28c0,.94-.12,1.87-.36,2.78-.27,1.02-.38,1.68-.33,2.74.02.37.43.67.78.45h0Z"/><path d="M405.67,229.57c.62,5.44,1.01,10.91.88,16.39s-.71,11.04-.44,16.55,1.68,11.24,3.17,16.8,2.31,10.8,2.38,16.4c.03,3.05-.09,6.2-.66,9.2s-1.65,6.12-2.82,9.02c-.43,1.05,1.33,1.56,1.72.47,1.84-5.11,3.05-10.6,3.68-16s.33-11.11-.76-16.6-2.82-11.35-3.1-17.24.09-11.33.24-17c.16-6.25.15-12.72-2.8-18.39-.35-.67-1.58-.39-1.48.4h0Z"/><path d="M447.52,287.7c.12,0,.12-.19,0-.19s-.12.19,0,.19h0Z"/><path d="M452.01,294.06c6.61,8.03,14.52,15,22.38,21.79s16.42,13.84,24.78,20.58,17.03,13.24,25.27,20.19c3.8,3.2,7.51,6.53,10.96,10.1s6.89,7.19,10.36,10.75c7.72,7.9,15.58,15.61,24.48,22.19.92.68,1.81-.86.9-1.54-7.94-5.94-15.17-12.82-22.24-19.75s-14.11-13.83-21.41-20.47c-7.84-7.13-16.54-13.22-24.67-20-8.22-6.87-16.36-13.83-24.57-20.71-4.47-3.74-8.9-7.54-13.17-11.52-4.24-3.95-8.23-8.27-12.07-12.6-.61-.69-1.56.31-.99.99h0Z"/><path d="M447.09,268.57c.21,3.04.36,6.09.46,9.13.05,1.5.05,2.99,0,4.48-.02.75-.05,1.5-.07,2.24-.03.79-.32,1.47-.55,2.22-.41,1.37.72,2.78,2.11,2.78,1.3,0,2.66-1.43,2.11-2.78-.3-.73-.72-1.45-.84-2.24-.12-.73-.23-1.46-.35-2.19-.25-1.52-.49-3.05-.7-4.58-.42-3.07-.91-6.13-1.44-9.19-.07-.41-.77-.32-.74.1h0Z"/><path d="M448.05,267.11c2.01,0,3.94-1.77,3.84-3.84s-1.69-3.84-3.84-3.84c-2.01,0-3.94,1.77-3.84,3.84s1.69,3.84,3.84,3.84h0Z"/><path d="M451.4,279c3.49,3.11,7.21,5.95,10.77,8.99,1.75,1.5,3.49,3.02,5.21,4.56.83.75,1.65,1.51,2.46,2.28s2.17,1.7,2.63,2.75,1.95.94,2.55.16c.68-.88.23-2.1-.8-2.43-.52-.17-1.01-.72-1.42-1.06-.49-.4-.98-.8-1.48-1.19-.88-.7-1.75-1.41-2.63-2.12-1.85-1.51-3.72-2.99-5.61-4.45-3.64-2.82-7.29-5.68-11.23-8.07-.36-.22-.78.3-.45.59h0Z"/><path d="M476.08,308.53c.23-.73.43-1.38.47-2.15.03-.62.02-1.25.03-1.87.02-1.34.12-2.71.04-4.05-.16-2.71-.59-5.38-.73-8.09-.06-1.09-1.63-1.09-1.69,0-.14,2.71-.59,5.38-.73,8.09-.07,1.34.02,2.71.04,4.05,0,.62,0,1.25.03,1.87.03.77.24,1.43.47,2.15.32,1.02,1.76,1.02,2.08,0h0Z"/><path d="M473.52,287.55l.62.37.67.28c.37.12.75.13,1.12.05.25,0,.49-.06.71-.19.35-.11.65-.31.91-.58l.44-.57.28-.67c.12-.37.13-.75.05-1.12-.02-.37-.13-.72-.33-1.05l-.37-.62c-.27-.45-.63-.81-1.08-1.08-.47-.27-.97-.41-1.51-.41l-.8.11c-.51.14-.95.4-1.32.77-.29.27-.5.59-.62.97-.19.36-.27.74-.26,1.16,0,.54.14,1.05.41,1.51.27.45.63.81,1.08,1.08h0Z"/><path d="M416.31,292.42c.06,0,.06-.09,0-.09s-.06.09,0,.09h0Z"/><path d="M420.17,291.07c1.16-.62,2.27-1.13,3.51-1.58,1.08-.39,2.07-1.04,3.08-1.57,2.09-1.1,4.23-2.07,6.35-3.1s4.34-2.04,6.56-2.94c1.13-.46,2.26-.9,3.4-1.32.92-.34,2.05-.46,2.51-1.42.17-.36.11-.82-.27-1.03-.96-.52-1.85-.02-2.83.3-1.15.38-2.3.78-3.43,1.2-2.31.85-4.59,1.78-6.83,2.77s-4.34,2.18-6.44,3.38c-.98.57-2.07,1.09-2.94,1.83-1.05.89-2.07,1.76-3.17,2.59-.52.39-.08,1.21.52.89h0Z"/><path d="M389.33,314.59c.21-2.42.39-4.82.06-7.23-.16-1.15-.34-2.29-.55-3.43-.1-.55-.2-1.09-.37-1.63-.22-.72-.3-1.27-.2-2.03.16-1.2-2.24-1.03-1.57.43.29.62.31,1.13.27,1.81-.03.56-.02,1.12,0,1.68.02,1.17.01,2.34-.02,3.51-.06,2.3.19,4.6.23,6.9.03,1.41,2.04,1.37,2.16,0h0Z"/><path d="M387.73,298.41c.39.01.76-.07,1.1-.25.35-.12.66-.31.92-.59.28-.26.48-.57.59-.92.18-.34.26-.71.25-1.1l-.1-.76c-.14-.48-.38-.9-.74-1.26l-.58-.45c-.45-.26-.93-.39-1.44-.39-.39-.01-.76.07-1.1.25-.35.12-.66.31-.92.59-.28.26-.48.57-.59.92-.18.34-.26.71-.25,1.1l.1.76c.14.48.38.9.74,1.26l.58.45c.45.26.93.39,1.44.39h0Z"/><path d="M476.63,428.4c.06,0,.06-.09,0-.09s-.06.09,0,.09h0Z"/><path d="M507.11,448.44c-1.22.63-1.3,2.31-1.39,3.53-.11,1.43-.16,2.87-.16,4.31s.06,2.85.34,4.27c.13.68.28,1.34.51,1.99.24.69.67,1.37.8,2.08.18,1.01,1.72.58,1.54-.42-.1-.58.1-1.24.13-1.84.04-.69.04-1.37.04-2.07,0-1.34-.13-2.67-.2-4.01s-.08-2.68-.05-4.01c.03-1.22.26-2.86-.76-3.72-.24-.2-.52-.25-.8-.1h0Z"/><path d="M504.21,446.48l.44.39.45.34.53.22.59.08c.3.01.59-.05.85-.19.19-.05.35-.15.49-.28.17-.1.3-.23.4-.4.14-.14.23-.3.28-.49.14-.26.2-.55.19-.85l-.05-.55c0-.44-.11-.85-.33-1.23-.22-.37-.51-.66-.87-.87-.38-.22-.79-.33-1.23-.33-.33-.01-.65.06-.94.21-.3.1-.56.27-.78.5-.3.3-.51.66-.63,1.07-.12.43-.12.86,0,1.29.12.41.32.77.63,1.07h0Z"/><path d="M519.25,437.14c-.46,2.74-1,5.64-.25,8.37.36,1.3.38,2.87.3,4.22s-.75,3-.23,4.28c.38.93,1.52.93,1.9,0,.51-1.24-.11-2.83-.21-4.12-.11-1.39-.08-3.04.28-4.38.75-2.73.21-5.63-.25-8.37-.13-.76-1.41-.76-1.54,0h0Z"/><path d="M520.22,434.2l.16-.03h.07c.42-.09.93-.42,1.22-.72.51-.51.8-1.2.8-1.92s-.29-1.42-.8-1.92c-.29-.29-.8-.63-1.22-.7h-.07c-.05-.02-.11-.03-.16-.04-.49-.13-.98-.13-1.47,0-.47.13-.88.37-1.22.71l-.43.56c-.25.43-.38.9-.38,1.4-.01.38.07.74.24,1.07.11.34.3.64.57.89.35.34.75.58,1.22.71.49.13.98.13,1.47,0h0Z"/><path d="M420.71,380.11c-.25.63-.43,1.1-.45,1.78s-.03,1.31-.05,1.96c-.01.54-.06,1.09,0,1.64.08.68.24,1.31.24,2.01,0,1.21-.03,2.43-.05,3.64l-.03,1.96c0,.64,0,1.05.33,1.61.15.27.57.27.73,0,.33-.58.34-.95.33-1.61l-.03-1.96c-.02-1.21-.05-2.43-.05-3.64,0-.64.12-1.24.21-1.87.09-.59.04-1.18.03-1.77-.02-.65-.03-1.31-.05-1.96s-.2-1.16-.45-1.78c-.14-.35-.58-.35-.72,0h0Z"/><path d="M416.89,375.78l.09.24.32.75c.2.37.47.66.81.88.2.19.43.33.69.4.37.2.78.29,1.21.27l.84-.11.75-.32c.37-.2.66-.47.88-.81.28-.3.47-.66.56-1.07l.09-.24c.15-.57.15-1.15,0-1.72-.15-.55-.43-1.02-.83-1.43l-.65-.51c-.5-.29-1.05-.44-1.63-.44-.45-.02-.86.08-1.25.28-.4.13-.75.35-1.04.67-.4.4-.68.88-.83,1.43-.15.57-.15,1.15,0,1.72h0Z"/><path d="M287.18,388.77c6.44,3.07,13.01,6.07,19.72,8.48,6.75,2.42,13.4,5.03,20.03,7.76,13.15,5.41,26.41,10.53,39.87,15.12,13.6,4.64,27.34,8.85,40.91,13.58s27.57,9.55,41.31,14.44c7.83,2.79,15.65,5.66,23.54,8.27,4.02,1.33,8.04,2.66,12.07,3.99s8.16,2.26,12.25,3.33c.48.13.63-.54.2-.72-3.54-1.47-7.06-3.07-10.67-4.38s-6.92-2.37-10.38-3.56c-6.99-2.4-14.04-4.63-21.08-6.87-14.03-4.48-28.03-9-42.03-13.59-13.53-4.43-26.88-9.33-40.23-14.28-13.33-4.94-26.67-9.84-39.95-14.92-7.52-2.88-15.03-5.78-22.23-9.41s-14.36-6.9-21.59-10.23c-2.01-.92-3.78,2.03-1.75,3h0Z"/><path d="M341.04,388.77c-.56.64-.94,1.18-1.16,2.01-.18.7-.34,1.4-.47,2.11-.28,1.51-.54,3.11-.53,4.65s.27,3.11.58,4.6c.14.67.25,1.45.53,2.08.16.34.42.6.61.92s.34.72.52,1.07c.1.21.45.11.44-.12-.02-.43-.09-.91-.02-1.34.04-.26.15-.5.17-.76.05-.68-.11-1.45-.13-2.13-.05-1.39.02-2.77.1-4.16s.09-2.74.28-4.1c.1-.71.23-1.43.38-2.13.16-.75.15-1.36.05-2.13-.08-.61-.85-1.14-1.36-.56h0Z"/><path d="M339.62,388.94c.14-.02.27-.03.41-.05.39.01.76-.07,1.1-.25.35-.12.66-.31.92-.59.28-.26.48-.57.59-.92.18-.34.26-.71.25-1.1l-.1-.76c-.14-.48-.38-.9-.74-1.26l-.58-.45c-.45-.26-.93-.39-1.44-.39-.14-.02-.27-.03-.41-.05-.4-.02-.77.07-1.12.25-.36.12-.67.32-.94.6-.28.26-.48.58-.6.94-.18.35-.27.72-.25,1.12l.1.77c.14.49.39.92.75,1.28l.59.45c.45.26.94.4,1.47.4h0Z"/><path d="M478.22,303.29c2.26,3.02,4.65,5.96,7.53,8.42s5.66,5.16,8.51,7.72c5.99,5.38,11.95,10.76,17.8,16.29,3,2.83,6.22,5.43,9.35,8.11s6.12,5.52,9.13,8.33,6.03,5.62,9.04,8.43c1.46,1.36,2.75,2.85,4.09,4.33,1.44,1.59,3.06,3.03,4.6,4.52,3.35,3.23,6.89,6.21,10.44,9.22,1.79,1.52,3.69,2.83,5.45,4.38s3.73,2.77,5.5,4.32c.32.28.77-.17.46-.46-.72-.68-1.5-1.32-2.11-2.1s-1.22-1.56-1.95-2.26-1.46-1.35-2.17-2.05c-.83-.82-1.49-1.76-2.33-2.58-2.95-2.88-5.82-5.91-8.95-8.6s-6.14-5.34-9.43-7.76-6.41-5.51-9.54-8.3-6.23-5.41-9.25-8.22-5.68-5.5-8.52-8.25-6.11-5.47-9.19-8.17-5.95-5.45-8.9-8.19c-3.13-2.91-6.38-5.76-9.29-8.88-1.46-1.56-2.75-3.31-4.16-4.92s-2.91-3.13-4.29-4.76c-.85-1-2.64.35-1.84,1.42h0Z"/><path d="M572.57,389.5c.15,0,.29-.03.42-.09.13-.04.25-.12.35-.22.11-.1.18-.21.22-.35.07-.13.1-.27.09-.42l-.04-.29c-.05-.18-.14-.34-.28-.48l-.22-.17c-.17-.1-.35-.15-.54-.15-.15,0-.29.03-.42.09-.13.04-.25.12-.35.22-.11.1-.18.21-.22.35-.07.13-.1.27-.09.42l.04.29c.05.18.14.34.28.48l.22.17c.17.1.35.15.54.15h0Z"/><path d="M389.31,318.16c1.98,1.05,3.96,2.09,5.99,3.03,1.01.46,2.1.59,3.08,1.12s2.01,1.17,2.99,1.77c1.84,1.14,3.7,2.17,5.59,3.23s3.62,2.33,5.43,3.44c1.7,1.04,3.32,2.28,5.15,3.06s3.79,1.95,5.53,3.07,3.4,2.26,5.04,3.47c1.73,1.29,3.59,2.38,5.36,3.61.32.22.64-.25.4-.52-1.41-1.53-2.82-3.1-4.49-4.36s-3.3-2.39-5.01-3.5-3.43-2.26-5.14-3.4c-.97-.65-1.76-1.23-2.82-1.74-.93-.44-1.84-.91-2.76-1.38-1.97-1.01-4.06-1.89-5.99-2.97s-3.73-2.12-5.66-3.09c-1.02-.52-2.09-1.04-3.07-1.63-.87-.53-1.52-1.3-2.34-1.9-1.86-1.36-3.92-2.49-5.9-3.68-1.51-.9-2.92,1.53-1.37,2.35h0Z"/><path d="M453.31,352.78c.18,0,.18-.28,0-.28s-.18.28,0,.28h0Z"/><path d="M437.12,345.1c1.46,1.57,3.43,2.48,5.27,3.56,1.93,1.13,3.83,2.34,5.81,3.36s3.98,2.08,5.99,3.05c1.02.49,2.06.6,3.07,1.16s2.01,1.16,3.02,1.74c3.88,2.23,7.62,4.71,11.53,6.87s7.65,4.23,11.47,6.34c7.7,4.26,15.4,8.55,23.07,12.88s15.37,8.27,22.98,12.55c8.64,4.87,17.29,9.72,25.85,14.73.84.49,1.57-.78.76-1.3-7.45-4.65-15-9.12-22.68-13.4-7.61-4.25-15.11-8.69-22.77-12.84-7.76-4.2-15.51-8.4-23.27-12.6-3.89-2.1-7.71-4.36-11.58-6.5-1.95-1.08-3.88-2.26-5.88-3.23s-3.92-1.8-5.84-2.82c-2.27-1.21-4.85-2.25-6.95-3.73-.45-.32-.75-.75-1.17-1.1-.5-.42-1.13-.72-1.69-1.05l-3.2-1.92c-2.14-1.28-4.34-2.42-6.55-3.57s-4.32-2.59-6.72-3.04c-.5-.1-.87.47-.5.86h0Z"/><path d="M554.87,410.71l-.76.14-.16.07c-.08.04-.14.1-.18.17-.04.04-.07.09-.08.14-.04.08-.06.16-.06.25l.02.17.07.16c.04.08.1.14.17.18.06.06.14.1.22.12l.76.14c.14.04.28.04.42,0,.13-.04.25-.11.35-.2.14-.16.23-.35.23-.56,0-.11-.02-.21-.07-.31-.03-.1-.09-.18-.16-.26-.1-.1-.22-.17-.35-.2-.14-.04-.28-.04-.42,0h0Z"/><path d="M394.48,307.42c.12,0,.12-.19,0-.19s-.12.19,0,.19h0Z"/><path d="M389.71,308.35c.3,0,.3-.47,0-.47s-.3.47,0,.47h0Z"/><path d="M388.79,312.24c5.75,2.35,11.49,4.75,17.18,7.23s10.87,5.3,16.2,8.11c10.84,5.71,21.54,11.64,32.29,17.52s21.88,12.46,32.72,18.83,21.91,12.84,32.92,19.15c6.19,3.55,12.33,7.19,18.46,10.84,3.07,1.83,6.14,3.65,9.21,5.45,1.57.92,3.15,1.85,4.72,2.78.71.42,1.42.86,2.14,1.27.82.46,1.64.55,2.56.72.33.06.54-.29.32-.55-.45-.54-.89-1.19-1.46-1.62s-1.32-.75-1.95-1.11c-1.44-.82-2.89-1.64-4.33-2.46-2.81-1.61-5.62-3.21-8.44-4.8-5.5-3.09-11.02-6.15-16.46-9.33-11.03-6.46-22.1-12.85-33.19-19.2-10.98-6.28-21.9-12.65-32.81-19.05-10.56-6.19-21.01-12.57-31.78-18.39-6.01-3.25-12.14-6.26-18.19-9.43s-12.31-6.52-18.68-9.4c-2.46-1.11-3.97,2.39-1.44,3.43h0Z"/><path d="M557.46,404.37c.06,0,.06-.1,0-.1s-.06.1,0,.1h0Z"/><path d="M557.46,404.6c.36,0,.36-.56,0-.56s-.36.56,0,.56h0Z"/><path d="M417.04,200.85c.18,0,.18-.28,0-.28s-.18.28,0,.28h0Z"/><path d="M417.04,200.81c.12,0,.12-.19,0-.19s-.12.19,0,.19h0Z"/><path d="M415.84,200.97c1.25.57,2.53.98,3.89,1.19s2.61.36,3.93.31c.19,0,.18-.26,0-.28-1.23-.14-2.49-.41-3.61-.96-1.05-.51-2.06-1.15-2.97-1.88-.48-.39-1.13-.42-1.54.1-.34.44-.28,1.25.29,1.52h0Z"/><path d="M425.08,203.64c.9.8,2.18,1.91,2.07,3.25-.06.7-.47,1.32-.74,1.95-.26.58-.42,1.17-.36,1.81.09,1.17.88,2.18,1.88,2.77,1.28.75,2.83.83,4.28.89.3.01.3-.45,0-.47-1.48-.07-3.14-.13-4.38-1.05-.55-.41-1.02-.99-1.21-1.66-.22-.74.04-1.39.43-2.02.65-1.06,1.32-2,1.08-3.31s-1.21-2.24-2.1-3.08c-.61-.59-1.56.37-.93.93h0Z"/><path d="M419.64,195.37l-.05.19c-.52,2,.99,4.03,3.07,4.03s3.59-2.03,3.07-4.03l-.05-.19c-.77-2.99-5.28-2.99-6.05,0h0Z"/><path d="M427.68,200.28c.84-.32,1.7-.55,2.59-.69.43-.07.87-.11,1.31-.13.31-.01.72-.04.95.23.18.21.23.53.25.8.03.4.03.81.03,1.21,0,.96-.08,1.92-.22,2.87-.04.25.06.5.33.58.23.06.53-.08.58-.33.19-1.1.3-2.22.33-3.34.02-.83,0-1.81-.62-2.43-.71-.71-1.88-.42-2.76-.25-1.03.2-2.02.53-2.97.97-.29.13-.08.63.22.51h0Z"/><path d="M431.27,208.98c.42,0,.42-.66,0-.66s-.42.66,0,.66h0Z"/><path d="M431.6,208.75c.12,0,.12-.19,0-.19s-.12.19,0,.19h0Z"/><path d="M430.79,208.66c-.08,3.24-.21,6.48-.25,9.72-.02,1.4.11,2.67.66,3.96.6,1.41.51,3,0,4.43-1.01,2.77-3.8,3.52-5.43,5.73-1.06,1.44-1.73,4.29.1,5.36.62.37,1.45-.39,1.03-1.03-.75-1.13-.94-2.08.05-3.18.84-.93,2-1.59,2.92-2.44,1.61-1.47,2.8-3.54,3.09-5.71.16-1.16-.06-2.12-.24-3.25-.24-1.44-.4-2.86-.37-4.32.07-3.09.16-6.19.24-9.28.03-1.15-1.75-1.15-1.78,0h0Z"/><path d="M434.33,211.63c-1.47,7.08.69,15.69,6.84,20.02.38.27.7-.28.45-.59-2.19-2.78-4.26-5.69-5.45-9.06s-1.76-6.83-1.48-10.32c.02-.21-.33-.26-.37-.05h0Z"/><path d="M426.43,240.38c-.15.89-.33,1.8-.33,2.7,0,.99.01,1.99.05,2.98.07,1.91.57,3.81,1.03,5.67.06.25.48.2.46-.06-.12-1.9-.05-3.82-.24-5.71-.1-.96-.17-1.91-.23-2.87-.05-.91-.24-1.8-.37-2.7-.03-.18-.33-.18-.36,0h0Z"/><path d="M427.63,253.06c.06,0,.06-.09,0-.09s-.06.09,0,.09h0Z"/><path d="M427.03,255.43c.61-.43,1.36-.69,2.03-1l1.8-.84c1.26-.58,2.42-1.49,3.59-2.24l3.56-2.29,1.66-1.07c.55-.36,1.26-.67,1.67-1.19.17-.22.02-.53-.27-.47-.65.14-1.24.62-1.81.96l-1.69,1.01-3.63,2.17c-1.15.69-2.41,1.32-3.48,2.13-1.15.87-2.21,2.03-3.47,2.72-.06.03,0,.12.05.09h0Z"/><path d="M441.86,246.2c.18,0,.18-.28,0-.28s-.18.28,0,.28h0Z"/><path d="M419.84,218.27c.1,1.71-.27,3.42-1.06,4.94-.39.76-.85,1.51-1.51,2.07s-1.37,1.01-2.08,1.43c-.37.22-.86.37-1.14.69s-.37.82-.05,1.15c.72.73,1.85-.17,2.48-.63.73-.53,1.3-1.2,1.82-1.93s1.04-1.36,1.46-2.12c.95-1.7,1.45-3.65,1.39-5.6-.03-.84-1.36-.84-1.31,0h0Z"/><path d="M417.07,216.92c.35.01.67-.06.97-.22.31-.1.58-.28.81-.52.25-.23.42-.5.52-.81.16-.3.23-.63.22-.97l-.09-.67c-.12-.43-.34-.8-.65-1.11l-.51-.39c-.39-.23-.82-.34-1.27-.34-.35-.01-.67.06-.97.22-.31.1-.58.28-.81.52-.25.23-.42.5-.52.81-.16.3-.23.63-.22.97l.09.67c.12.43.34.8.65,1.11l.51.39c.39.23.82.34,1.27.34h0Z"/><path d="M413.28,236.91c2.05.32,4.02.91,6.03,1.38.99.23,1.97.51,2.94.82.48.16.96.33,1.44.51.5.19,1,.46,1.52.57.45.1.94-.52.5-.86-.79-.63-1.87-.99-2.8-1.37-1.01-.42-2.04-.79-3.09-1.11-2.07-.63-4.28-.76-6.43-.78-.46,0-.59.75-.11.83h0Z"/><path d="M427.36,239.67c2.15-.69,4.28-1.46,6.37-2.33,1.01-.42,2.04-.82,2.99-1.36s2.02-1.07,2.87-1.78c.39-.33-.03-1.03-.5-.86-1.02.36-1.97.95-2.95,1.42s-1.97,1.06-2.95,1.58c-1.96,1.05-3.97,2.01-6.01,2.9-.24.11-.07.51.18.43h0Z"/><path d="M441.33,236.07c-.37,1.54-.69,3.09-.91,4.66-.11.78-.09,1.6-.09,2.39s-.08,1.68.21,2.46c.23.62,1.17.72,1.36,0,.21-.78.09-1.57.08-2.37s.03-1.58-.02-2.37c-.09-1.57-.18-3.14-.17-4.72,0-.26-.4-.32-.46-.06h0Z"/><path d="M418.01,268.32c1.45.03,2.86.11,4.31.02s3-.11,4.5-.07,2.88.07,4.32.18c.72.05,1.43.13,2.15.21.77.08,1.53.02,2.29.07.55.04.6-.76.12-.92-.74-.26-1.43-.59-2.2-.75s-1.52-.28-2.29-.39c-1.46-.22-2.92-.4-4.39-.44s-3-.02-4.5.07-2.97.46-4.46.94c-.6.19-.5,1.09.15,1.1h0Z"/><path d="M435.74,269.4c.94-.77,1.98-1.4,3.01-2.04.52-.33,1.06-.62,1.62-.89.32-.16.59-.3.86-.54.23-.21.46-.41.7-.6.39-.32.06-.96-.4-.96-.3,0-.59.01-.89.03-.22.01-.44.02-.65.1s-.38.17-.57.26c-.59.28-1.16.6-1.71.94-1.15.72-2.1,1.67-2.97,2.72-.58.7.29,1.57.99.99h0Z"/><path d="M451.78,258.93c.93.16,1.52-.39,2.22-.92.61-.46,1.21-.94,1.77-1.46.6-.56,1.13-1.17,1.61-1.83.42-.58.97-1.38.99-2.12,0-.33-.05-.62,0-.94.07-.38.12-.77.12-1.16,0-.84-.17-1.66-.49-2.42s-.75-1.5-1.26-2.17-1.24-1.22-1.95-1.75c-.52-.39-1.27.38-.9.9.43.59.79,1.23,1.24,1.81s.87,1.16,1.18,1.82c.28.59.47,1.26.5,1.92.01.25.05.63-.03.87-.09.27-.43.53-.57.79-.6,1.1-1.22,2.01-2.15,2.87-.47.44-.97.86-1.48,1.25-.57.43-1.25.76-1.39,1.52-.08.41.11.96.59,1.04h0Z"/><path d="M436.41,261.83c3.12-1.75,6.25-3.44,9.08-5.66,1.22-.96,2.34-2.08,3.32-3.29.9-1.12,1.87-2.28,2.55-3.55,1.22-2.28,2.06-5.71.7-8.1-1.49-2.61-4.37-3.81-7.05-4.82-.84-.32-1.42,1.06-.61,1.46,2.44,1.19,4.53,2.34,5.48,5.01.41,1.14.74,2.14.66,3.37-.08,1.32-.47,2.64-1.09,3.81-1.26,2.4-4.12,3.77-6.4,5.03-2.68,1.48-5.28,3.02-7.87,4.64-1.33.83-.14,2.88,1.23,2.1h0Z"/><path d="M414.27,251.46c2.25.79,4.48,1.56,6.78,2.19l3.36.93c1.14.32,2.35.8,3.54.84,1,.03,1.43-1.45.52-1.92-1.02-.53-2.24-.69-3.35-.96l-3.52-.86c-2.32-.56-4.65-.98-7-1.39-.77-.13-1.07.91-.32,1.18h0Z"/><path d="M404.96,188.24c.82-5.42,5.59-8.99,9.16-12.71,2.1-2.19,3.98-4.64,5.19-7.43.55-1.27,1.05-2.57,1.42-3.9.17-.61.27-1.25.48-1.85.45-1.3,1.48-1.6,2.76-1.37,2.85.51,4.94,2.86,6.49,5.15,1.7,2.51,3.12,5.24,4.53,7.92,1.6,3.03,3.1,6.11,4.59,9.2,1.39,2.89,2.73,5.82,3.56,8.93.95,3.51,1.1,7.08.11,10.59s-2.89,6.72-4.25,10.1c-.5,1.23,1.31,1.72,1.97.83,4.25-5.69,6.92-12.76,5.57-19.91-.68-3.6-2.16-7.02-3.76-10.3s-3.43-6.6-5.37-9.78c-1.77-2.92-3.56-5.89-5.67-8.58-1.67-2.14-3.77-4.23-6.46-4.96-1.12-.3-2.43-.41-3.55-.06-1.37.44-1.89,1.83-2.43,3.02-1.4,3.11-3.18,6.15-5.24,8.88-3.78,4.99-9.6,9.34-9.83,16.13-.01.41.67.52.74.1h0Z"/><path d="M390.11,209.35c-2.34-7.42-.36-14.77,2.18-21.84,1.47-4.08,2.96-8.12,4.12-12.3.45-1.61.82-3.29,1.49-4.83.48-1.11,1.21-2.58,2.35-3.13,1.73-.84,3.54.2,4.71,1.5,1.49,1.67,2.17,3.91,2.85,6,.35,1.09,2,.65,1.72-.47-1.01-4.04-2.37-7.94-6.47-9.71s-7.53.58-9.26,4.15c-2.07,4.26-3.33,8.99-4.57,13.54s-2.47,9.02-3.01,13.67c-.28,2.42-.32,4.86.01,7.28s1.15,4.62,2.6,6.7c.43.61,1.54.27,1.29-.54h0Z"/><path d="M499.48,299.89c.17-1.21.31-2.36.34-3.58s.1-2.52.18-3.78c.04-.61.1-1.2.06-1.82-.04-.65-.09-1.29,0-1.94.16-1.15.52-2.31.33-3.46-.06-.36-.61-.4-.77-.1-.53.98-.53,2.17-.66,3.27-.09.7-.28,1.34-.47,2.02-.16.58-.22,1.15-.29,1.75-.14,1.21-.25,2.43-.34,3.64-.1,1.29-.08,2.5.06,3.79.09.8,1.43,1.18,1.57.21h0Z"/><path d="M499.46,282.96c4.04,0,4.05-6.28,0-6.28s-4.05,6.28,0,6.28h0Z"/><path d="M504.43,292.31c2.27-1.16,4.61-2.21,6.78-3.54s4.15-2.96,6.38-4.23c4.47-2.56,8.93-5.31,13.61-7.46,4.65-2.14,9.26-4.29,13.85-6.56,4.56-2.26,9.14-4.52,13.71-6.76,2.57-1.26,5.21-2.4,7.62-3.94,1.15-.73,2.54-1.16,3.64-1.97,1.27-.93,2.62-1.62,4.03-2.34.23-.12.07-.53-.18-.43-2.37.95-4.74,1.65-7.1,2.62-1.12.46-2.29.72-3.39,1.22-1.23.57-2.45,1.16-3.67,1.74-4.67,2.23-9.31,4.51-13.89,6.92s-8.94,4.83-13.28,7.53-8.98,5.13-13.49,7.66c-1.34.75-2.67,1.6-4.08,2.21-1.23.53-2.44,1.01-3.61,1.65-2.6,1.43-5,3.11-7.43,4.79-.54.38-.08,1.19.52.89h0Z"/><path d="M508.06,297.41c.06,0,.06-.09,0-.09s-.06.09,0,.09h0Z"/><path d="M507.99,299.2c2.47-.61,4.8-1.91,7.02-3.15s4.69-2.47,6.88-3.88c4.35-2.8,9.18-4.9,13.83-7.17s9.36-4.53,14.05-6.77c2.38-1.14,4.77-2.28,7.15-3.41,1.18-.56,2.45-1.05,3.58-1.7s2.2-1.39,3.41-1.98c5.35-2.6,10.7-5.18,16.13-7.62,1.57-.7.19-3.19-1.37-2.35-4.64,2.51-9.33,4.9-14.04,7.27-1.13.57-2.25,1.22-3.42,1.71-1.29.54-2.53.97-3.79,1.62-2.27,1.17-4.54,2.34-6.81,3.52-4.61,2.39-9.21,4.79-13.82,7.18-2.34,1.21-4.68,2.43-7.02,3.65s-4.81,2.66-7.32,3.66c-2.7,1.07-5.25,2.39-7.9,3.57s-5.33,2.44-7.48,4.31c-.74.64.06,1.78.91,1.57h0Z"/><path d="M539.86,334.38c.23-.54.51-1.07.7-1.62.21-.59.19-1.31.25-1.93l.34-3.54c.11-1.18.21-2.36.27-3.54l.09-1.91c.03-.68.15-1.32-.25-1.92-.36-.55-1.24-.79-1.73-.22-.81.93-.64,2.59-.75,3.78s-.18,2.36-.23,3.54l-.15,3.54c-.03.63-.13,1.32-.03,1.95.09.59.3,1.17.46,1.75.12.42.83.6,1.03.13h0Z"/><path d="M542.09,317.28l.47-.64c.18-.31.27-.64.27-.99.01-.27-.05-.52-.17-.76-.08-.24-.22-.46-.41-.63-.25-.24-.54-.41-.87-.51l-.83-.26-.69-.09-.69.09-.62.26-.52.4-.4.52-.26.62-.09.69c-.01.35.06.69.22.99.06.22.17.41.33.57.11.19.27.35.46.46.16.16.35.27.57.33.2.12.42.18.65.18.23.06.46.06.69,0,.23,0,.45-.06.65-.18.22-.06.41-.17.57-.33.28-.18.5-.42.66-.72h0Z"/><path d="M564.86,355.2c.15-.58.33-1.15.47-1.73s.13-1.12.14-1.7l.03-3.59c0-.62.04-1.24-.06-1.86-.09-.54-.26-1.06-.33-1.6-.14-1.12.02-2.46-.37-3.53-.26-.71-1.19-.71-1.45,0-.37,1.02-.24,2.31-.36,3.39-.07.59-.24,1.15-.34,1.74-.11.61-.07,1.24-.06,1.86l.03,3.46c0,.63,0,1.22.14,1.83s.31,1.16.47,1.73c.23.85,1.49.85,1.72,0h0Z"/><path d="M566.2,337.78v-.05s.01-.02.01-.03c.11-.65.11-.58,0-1.23,0,0,0,0,0-.01v-.05s-.01,0-.01-.01c-.07-.39-.41-.89-.68-1.16-.33-.33-.71-.55-1.16-.68-.47-.13-.93-.13-1.4,0-.44.12-.83.35-1.16.68-.33.33-.55.71-.68,1.16-.13.47-.13.93,0,1.4.12.44.35.83.68,1.16.33.33.71.55,1.16.68.47.13.93.13,1.4,0,.44-.12.83-.35,1.16-.68.33-.33.55-.71.68-1.16h0Z"/><path d="M543.98,321.47l2.84.72c.47.12.93.22,1.42.28s.99.12,1.48.23c.24.05.32-.27.1-.36-.45-.19-.88-.41-1.32-.63s-.91-.41-1.38-.58l-2.76-1c-.36-.13-.77.15-.86.49s.12.77.49.86h0Z"/><path d="M551.03,319.28c.06,0,.06-.09,0-.09s-.06.09,0,.09h0Z"/><path d="M549.8,322.82c4.3,3.64,8.59,7.29,12.89,10.93l6.26,5.3,3.22,2.73c1.06.9,1.98,2.26,3.37,2.59,1.31.31,2.29-1.03,1.69-2.2s-2.04-1.72-3.11-2.5l-3.41-2.49c-2.27-1.66-4.55-3.32-6.82-4.98-4.55-3.32-9.09-6.64-13.64-9.96-.34-.25-.78.31-.45.59h0Z"/><path d="M575.47,344.39c.23.86.92,1.41,1.53,2.02l1.76,1.76,3.51,3.52,7.02,7.05c.98.99,2.47-.51,1.52-1.52-2.27-2.42-4.54-4.84-6.81-7.25l-3.31-3.53-1.7-1.81c-.62-.66-1.17-1.4-2.07-1.68s-1.67.6-1.44,1.44h0Z"/><path d="M565.56,348.05c1.34.13,1.78,1.32,2.58,2.19.75.81,1.58,1.56,2.39,2.32,1.68,1.57,3.42,3.07,5.21,4.5,3.52,2.81,7.45,5.18,11.41,7.31,1.38.74,2.59-1.31,1.23-2.1-4.22-2.47-8.16-5.32-12.02-8.31-1.87-1.45-3.68-2.98-5.43-4.58-1.44-1.32-3.4-2.8-5.46-1.96-.34.14-.29.61.09.64h0Z"/><path d="M562.84,356.15c1.91,1.35,3.94,2.41,5.97,3.58s3.97,2.42,5.93,3.66,3.77,2.47,5.59,3.8c.94.68,1.84,1.41,2.77,2.1.87.64,1.84,1.45,2.87,1.79.49.17.85-.42.64-.83-.46-.9-1.41-1.7-2.15-2.38-.9-.83-1.9-1.57-2.86-2.32-1.85-1.44-3.75-2.83-5.69-4.15s-3.94-2.47-5.98-3.58c-2.14-1.17-4.22-2.23-6.57-2.89-.75-.21-1.09.79-.51,1.2h0Z"/><path d="M498.78,300.21c4.19,3.64,8.81,6.67,13.29,9.94,2.25,1.64,4.42,3.43,6.7,5.03.57.4,1.18.83,1.79,1.16.56.3,1.18.47,1.73.79,1.3.75,2.49,1.71,3.68,2.61.21.16.48-.19.28-.37-1.07-.95-2.17-1.87-3.16-2.9s-1.69-2.06-2.74-2.97c-2.11-1.84-4.47-3.45-6.72-5.1s-4.53-3.27-6.83-4.85-4.82-2.9-7.17-4.45c-.66-.43-1.46.58-.85,1.1h0Z"/><path d="M527.17,320.05l1.47,1.32c.44.4.75.87,1.17,1.29.93.93,1.87,1.85,2.79,2.79s1.73,1.88,2.69,2.73l3.04,2.71c1.08.96,2.69-.65,1.59-1.59l-3.01-2.57c-1.03-.88-2.17-1.64-3.26-2.45s-2.08-1.58-3.12-2.37c-.22-.17-.45-.4-.7-.51s-.43-.21-.66-.4l-1.6-1.35c-.27-.23-.67.15-.4.4h0Z"/><path d="M501.85,294.5c.41,1.34,1.33,2.26,2.41,3.1,1.49,1.17,2.98,2.33,4.48,3.5,3.05,2.38,6.1,4.76,9.15,7.15,6.05,4.73,12.24,9.28,18.36,13.92,1.11.84,2.18-1.03,1.09-1.86-5.85-4.43-11.63-8.96-17.55-13.3-2.92-2.14-5.84-4.29-8.76-6.43-1.46-1.07-2.92-2.14-4.38-3.22-1.27-.93-3.1-1.84-3.93-3.21-.27-.44-1.02-.16-.86.36h0Z"/><path d="M355.92,351.56c6.11,5.55,13.4,9.5,20.6,13.42,4.07,2.22,8.06,4.59,12.17,6.75s8.24,4.27,12.31,6.52c4.64,2.57,9.28,5.13,13.92,7.7,1.11.61,2.11-1.1.99-1.7-8.12-4.33-16.23-8.66-24.25-13.16-7.61-4.28-15.5-8.07-23-12.54-4.05-2.41-7.94-5.1-11.42-8.31-.89-.82-2.22.51-1.33,1.33h0Z"/><path d="M282.21,365.59c-.41.8-.63,1.41-.71,2.3s-.13,1.82-.17,2.73c-.09,1.82-.12,3.65-.11,5.47s.07,3.64.31,5.46c.12.87.15,1.82.4,2.67.11.37.27.72.38,1.1.14.49.16.68.57,1.01.39.3.81.25,1.1-.14.32-.42.28-.62.3-1.13.02-.4.08-.77.11-1.16.06-.89-.09-1.83-.12-2.72-.06-1.69-.22-3.38-.31-5.07s-.13-3.39-.13-5.08c0-.91.01-1.82.04-2.73s-.07-1.63-.37-2.53c-.18-.53-.99-.74-1.29-.17h0Z"/><path d="M278.93,361.96l.09.8c-.02.4.07.77.25,1.12.12.36.32.67.6.94.26.28.58.48.94.6.35.18.72.27,1.12.25l.77-.1c.49-.14.92-.39,1.28-.75l.45-.59c.26-.45.4-.94.4-1.47l.09-.8c.02-.41-.07-.8-.26-1.16-.12-.37-.33-.69-.62-.97-.27-.29-.59-.5-.97-.62-.36-.19-.74-.27-1.16-.26l-.8.11c-.51.14-.95.4-1.32.77l-.47.61c-.27.47-.41.97-.41,1.51h0Z"/><path d="M288.52,379.54c-.42-.65-.9-1.29-1.24-1.98l-2.14,1.65c1.28,1.51,3.82,1.97,5.62,2.65,2.02.76,4.03,1.52,6.05,2.29,4.03,1.52,8.07,3.05,12.1,4.57,4.01,1.51,8.11,2.92,12.23,4.13,2.07.61,4.07,1.41,6.08,2.17.93.35,1.86.7,2.79,1.05,1.18.44,2.63.77,3.47,1.75.61.72,1.79.37,2.13-.42s-.24-1.94-1.2-1.82c-1.26.16-2.35-.46-3.5-.91-.93-.37-1.85-.73-2.78-1.1-2.09-.82-4.2-1.6-6.22-2.57-3.82-1.85-7.77-3.55-11.71-5.11s-8.04-3.16-12.06-4.75c-2.01-.79-4.02-1.58-6.03-2.37-1.78-.7-4.08-2.12-6.03-1.87-1.52.19-1.85,2.1-.36,2.67.62.24,1.22.64,1.81.94s1.36-.34.96-.96h0Z"/><path d="M343.45,400.19c20.04,7.8,40.25,15.17,60.59,22.16,10.24,3.52,20.47,7.03,30.68,10.64,2.52.89,5.02,1.82,7.5,2.81s4.89,2.15,7.42,3.09c5.01,1.85,10.01,3.7,15.02,5.55,5.71,2.11,11.42,4.16,17.2,6.07,2.85.94,5.66,1.98,8.48,3,1.41.51,2.81,1.07,4.23,1.53.71.23,1.45.39,2.17.57.93.23,1.6.58,2.41,1.1,1.85,1.19,3.31-2.41.73-2.71-1.49-.17-2.64-.86-4-1.44-1.18-.5-2.43-.88-3.63-1.3-2.59-.91-5.2-1.79-7.77-2.75-5.01-1.86-9.97-3.79-15.02-5.53l-15.35-5.29c-2.5-.86-5.01-1.88-7.57-2.56s-5.13-1.37-7.65-2.25c-20.32-7.03-40.28-15.07-60.62-22.06-11.49-3.95-22.96-7.94-34.52-11.7-.7-.23-.96.83-.3,1.08h0Z"/><path d="M424.98,390.44c10.41,8.09,21.8,14.99,33.07,21.81,11.26,6.81,22.69,13.26,34.27,19.5,6.54,3.53,13.01,7.3,19.76,10.39.97.44,1.81-.9.85-1.46-5.76-3.31-11.75-6.24-17.58-9.42s-11.28-6.43-16.9-9.67c-11.39-6.57-22.58-13.45-33.72-20.43-6.31-3.95-12.5-8.05-18.95-11.76-.62-.36-1.4.56-.8,1.03h0Z"/><path d="M350.04,359.27c9.67,6.13,19.43,12.12,29.23,18.03s19.81,11.51,29.39,17.77c4.74,3.1,9.62,5.89,14.58,8.61s9.99,5.59,14.95,8.45,10.05,5.48,15.07,8.24,9.9,5.42,14.82,8.18c5.62,3.15,11.2,6.41,16.93,9.36,2.87,1.48,5.74,2.95,8.62,4.42,1.36.69,2.79,1.3,4.12,2.04.66.37,1.19.95,1.94,1.13.63.15,1.27-.02,1.9-.11.19-.03.24-.27.17-.41-.26-.53-.46-1.08-.88-1.51-.47-.48-1.01-.56-1.62-.82-1.37-.58-2.67-1.48-3.97-2.2-2.47-1.36-4.93-2.73-7.4-4.11-5-2.79-10.1-5.39-15.16-8.08-4.98-2.65-9.93-5.36-14.86-8.12-2.53-1.42-5.06-2.84-7.59-4.27-1.12-.63-2.24-1.27-3.37-1.91-1.27-.72-2.43-1.59-3.7-2.3-5-2.78-10.04-5.51-14.93-8.48s-9.78-5.95-14.78-8.74c-2.47-1.38-4.99-2.65-7.49-3.96s-4.89-2.83-7.3-4.28c-4.91-2.95-9.81-5.91-14.69-8.89-10.94-6.68-21.83-13.45-32.71-20.23-1.39-.86-2.65,1.32-1.28,2.19h0Z"/><path d="M427.22,443.64c-.19,1.36,0,2.71.11,4.07l.31,3.85.31,3.85.17,2.07c.06.73.02,1.49.44,2.12.64.96,1.92.72,2.31-.3.27-.69.04-1.47-.05-2.18l-.24-1.76-.53-3.97-.51-3.82c-.18-1.31-.23-2.68-.7-3.92-.25-.68-1.5-.91-1.63,0h0Z"/><path d="M426.11,437.48l-.19.77c-.08.34-.15.65-.15,1.02,0,.44.05.68.17,1.02l.13.39.31.73c.19.36.45.64.78.85.19.19.41.32.67.39.36.19.75.28,1.17.26l.81-.11.73-.31c.36-.19.64-.45.85-.78.27-.29.45-.64.55-1.04l.12-.37c.12-.34.17-.59.17-1.03,0-.37-.07-.68-.15-1.02l-.19-.77-.3-.72c-.19-.35-.45-.63-.77-.84-.19-.19-.41-.31-.66-.39-.36-.19-.74-.27-1.16-.26l-.8.11-.72.3c-.35.19-.63.45-.84.77-.27.29-.44.63-.54,1.02h0Z"/><path d="M323.42,408.87c-.04,2.52-.15,5.04-.08,7.55l.21,7.55c.04,1.52,2.46,1.49,2.34,0l-.57-7.55c-.19-2.53-.56-5.03-.86-7.55-.08-.64-1.02-.68-1.03,0h0Z"/><path d="M324.37,407.32h.12c1.11-.11,1.98-.7,2.33-1.78.14-.42.14-.86,0-1.28-.35-1.09-1.22-1.68-2.33-1.77h-.12c-3.12-.28-3.12,5.11,0,4.84h0Z"/><path d="M383.13,429.56c.17,4.92,1.02,9.73,1.86,14.57.2,1.14,2.11.88,2.03-.27-.34-4.9-.67-9.77-1.67-14.59-.26-1.24-2.25-.96-2.21.3h0Z"/><path d="M383.4,427.1l1.26.35c.1.03.2.06.3.08.75.18,1.42.19,2.17-.02l.11-.03.53-.15c.58-.16,1.08-.46,1.51-.88.33-.31.57-.68.71-1.1.21-.41.31-.85.29-1.32,0-.62-.16-1.19-.47-1.73l-.3-.4s-.06-.08-.09-.12c-.51-.68-.69-1-1.43-1.44-.37-.22-.8-.34-1.2-.51l-1.24-.5c-.54-.17-1.07-.19-1.61-.07-.54.02-1.04.18-1.5.48-.47.25-.85.6-1.13,1.04-.36.39-.6.85-.72,1.37l-.14,1.07c0,.73.19,1.41.55,2.03l.63.82c.5.5,1.1.85,1.78,1.04h0Z"/><path d="M328.82,426.65c1.6.65,3.2,1.4,4.87,1.88.82.24,1.66.55,2.51.68s1.59.09,2.39.4l4.7,1.81c1.54.59,3.03,1.32,4.68,1.51.35.04.41-.45.17-.61-1.38-.92-3.02-1.33-4.57-1.88s-3.17-1.09-4.73-1.67c-.87-.32-1.46-.93-2.25-1.37-.74-.41-1.57-.72-2.35-1.07-1.55-.69-3.23-1.15-4.84-1.68-1.29-.43-1.75,1.5-.55,1.99h0Z"/><path d="M349.39,433.09c3.57,1.46,7.07,3.06,10.64,4.51l5.25,2.12,2.72,1.1c.91.37,1.56.38,2.53.19.64-.13.71-.91.35-1.33-.65-.77-1.23-1.11-2.19-1.39l-2.8-.83-5.4-1.59c-3.67-1.08-7.37-1.99-11.04-3.06-.18-.05-.24.2-.07.27h0Z"/><path d="M329.26,418.99c8.49,3.12,16.96,6.27,25.43,9.43l6.29,2.35c1.01.38,2.03.86,3.08,1.06,1.15.23,2.24.38,3.36.75.55.18,1.11.34,1.65.54.59.22.96.49,1.49.81.88.53,1.9.9,2.83,1.33s1.94.94,2.94,1.33c.45.18.94.27,1.37.5.54.3.76.56,1.39.68,1.22.24,2-1.37.87-2.06-.8-.49-1.75-.53-2.62-.91-1.05-.45-2.21-.73-3.3-1.08-2.19-.7-4.38-1.19-6.48-2.13-1.09-.48-1.95-1.17-2.97-1.75-.93-.52-2.04-.84-3.03-1.23l-6.25-2.49c-8.42-3.36-16.83-6.73-25.23-10.13-1.82-.74-2.7,2.29-.82,2.98h0Z"/><path d="M433.24,453.57c1.87,1.3,4.01,2.02,6.11,2.89s4.29,1.77,6.45,2.6l12.97,4.97c4.32,1.66,8.65,3.31,12.98,4.94l6.5,2.44c.96.36,1.91.8,2.93.98,1.12.2,2.21.69,3.35.72.27,0,.45-.37.23-.56-.77-.68-1.75-.99-2.62-1.52-.94-.58-1.87-.99-2.89-1.41l-6.44-2.66c-4.29-1.77-8.59-3.51-12.89-5.25-4.3-1.74-8.6-3.48-12.9-5.22-2.15-.87-4.31-1.69-6.48-2.51s-4.29-1.77-6.59-2.11c-1.04-.15-1.64,1.08-.72,1.71h0Z"/><path d="M484.33,472.83l.34.37c.11.12.23.24.34.38l-.13-.16.32.51c.22.35.59.58,1.01.58s.8-.22,1.01-.58.21-.82,0-1.18c-.2-.34-.61-.61-1.01-.58-.26.02-.53.06-.79.03l-.79-.08c-.16-.02-.33.12-.39.26-.07.16-.03.33.09.46h0Z"/><path d="M489.88,464.66v.31c.08-.16.17-.31.26-.47-1.48.7-.57,3.01-.41,4.23.19,1.48.35,2.97.6,4.44.05.32.23.53.31.81.08.31.04.65.18.95.28.63.15,1.21.02,1.9s-.31,1.42-.48,2.13c-.21.84-.51,1.56-.27,2.43s1.45,1.03,1.88.25c.67-1.22.22-2.99.07-4.33-.07-.59-.33-1.53-.14-2.09s.32-1.09.39-1.73l-.26.62c.56-.71.49-1.5.5-2.36.02-.97-.05-1.89-.16-2.85-.11-.91-.24-1.81-.4-2.71s-.54-1.72-1.56-1.76l.47.27-.13-.28c-.21-.44-.86-.2-.87.24h0Z"/><path d="M487.79,459.12c-.2.37-.46.79-.55,1.19l-.11.82.11.82s0,.06.01.09l.02.13.05.31.3.72c.19.35.45.63.77.84.19.19.41.31.66.39.36.19.74.27,1.16.26l.8-.11.72-.3c.35-.19.63-.45.84-.77.27-.29.44-.63.54-1.02l.05-.3.02-.15s0-.05.01-.07c.02-.14.04-.28.06-.43.09-.41.07-.82-.06-1.23l-.31-.74v-.02s-.04-.05-.05-.07l-.06-.11-.14-.25c-.47-.86-1.46-1.39-2.43-1.39s-1.96.53-2.43,1.39h0Z"/><path d="M436.23,461.93c1.78,1.04,3.54,2.18,5.43,3.01s3.67,1.57,5.51,2.34c3.93,1.63,7.88,3.2,11.85,4.71s7.82,2.9,11.77,4.24c1.97.67,3.95,1.32,5.94,1.96.99.32,1.98.64,2.98.95s1.81.69,2.81.48c.64-.13.79-.98.37-1.41-.71-.72-1.67-.86-2.61-1.15s-1.84-.57-2.76-.85c-1.99-.62-3.97-1.26-5.95-1.92-3.95-1.31-7.9-2.66-11.81-4.07s-7.81-2.88-11.69-4.41c-1.94-.76-3.86-1.56-5.79-2.34s-3.94-1.28-5.9-1.88c-.2-.06-.33.24-.14.34h0Z"/><path d="M487.35,478.84c-2.17,1.12-3.73,3.46-5.28,5.32-1.64,1.97-3.22,3.98-4.75,6.04s-2.93,4.07-4.21,6.23c-.66,1.11-1.3,2.23-1.92,3.35-.67,1.2-1.32,2.18-1.33,3.59,0,.8.92,1.37,1.62.93,1.13-.71,1.59-1.65,2.27-2.77.63-1.04,1.28-2.07,1.94-3.09,1.4-2.16,2.79-4.33,4.22-6.47s2.85-4.11,4.36-6.1,3.44-3.77,4.31-6.07c.28-.74-.64-1.26-1.24-.95h0Z"/><path d="M376.65,444.14l.47-.02-.41-.31c.32.82.78.87,1.59,1.18,1,.39,2.01.77,3.01,1.16l6.26,2.4c4.02,1.55,7.99,3.21,12.01,4.78s8.15,2.7,12.18,4.15c2.03.73,4.28,1.29,6.17,2.31s4.06,2.84,6.29,2.98c.94.06,1.84-.71,2.08-1.58.27-.98-.21-1.87-.99-2.44-.97-.7-2.24-.75-3.39-.95-.98-.17-1.96-.31-2.93-.52-2.07-.43-4.1-1.36-6.09-2.07-4.12-1.48-8.15-3.25-12.3-4.65s-8.18-2.57-12.24-3.92l-6.1-2.04-3.05-1.02c-.84-.28-1.49-.69-2.3-.23l.51.07-.33-.3c-.91-.82-1.51,1.09-.43,1.04h0Z"/><path d="M320.72,444.84c4.11.77,8.33.53,12.5.56s8.76.14,13.13.06l12.88-.24c4.2-.08,8.77.32,12.8-1.04.56-.19.59-1,0-1.18-3.99-1.21-8.42-.69-12.55-.63-4.38.06-8.75.12-13.13.19-4.29.06-8.59.31-12.88.48s-8.58.05-12.75.98c-.39.09-.41.74,0,.81h0Z"/><path d="M319.21,457.77c17.61-2.68,35.54-4.08,53.35-3.81.67.01.66-.99,0-1.03-9.04-.55-18.11-.66-27.16-.33-9.02.33-17.95,1.32-26.86,2.72-1.61.25-.92,2.68.67,2.44h0Z"/><path d="M373.2,455.02c16.16,5.55,32.51,10.53,48.63,16.19,1.54.54,2.2-1.9.67-2.44-16.15-5.67-32.06-12.03-48.18-17.82-2.55-.92-3.68,3.19-1.12,4.07h0Z"/><path d="M423.87,471.99c7.18,5.01,14.35,10.01,21.53,15.02,7.16,4.99,14.19,10.28,21.68,14.77,1.46.88,3.28-1.31,1.87-2.43-6.87-5.49-14.31-10.28-21.54-15.28-7.26-5.02-14.53-10.05-21.79-15.07-1.84-1.27-3.57,1.73-1.75,3h0Z"/><path d="M425.22,461.51l-.04.15c-.16.64.12,1.16.62,1.54,7.01,5.19,14.36,9.87,21.63,14.7,3.59,2.39,7.19,4.77,10.78,7.16,1.8,1.19,3.6,2.38,5.4,3.57s3.59,2.78,5.7,3.24c1.05.23,2.27-.96,1.54-2-1.27-1.77-3.27-2.78-5.07-3.97s-3.74-2.47-5.61-3.7c-3.6-2.37-7.21-4.74-10.81-7.11-7.35-4.83-14.59-9.81-22.18-14.25-.39-.23-.99-.28-1.37,0-.25.18-.51.34-.59.66h0Z"/><path d="M280.51,229.35c-.77-1.35-1.73-1.8-3.26-2.05-1.65-.27-3.47-.02-5.13.08-3.37.21-6.73.62-10.06,1.21-6.59,1.18-13.02,3.24-19.12,5.98-4.7,2.11-9.63,5.1-12.12,9.8-2.77,5.24-1.13,11.34,2.73,15.56,4.03,4.4,10.07,6.8,15.7,8.39,5.62,1.59,11.56,2.18,17.39,1.91,11.5-.54,23.51-4.35,32.08-12.27,4.48-4.14,7.64-10.01,4.87-16.05-2.85-6.24-10.12-9.85-16.52-11.2-1.92-.41-2.58,2.2-.8,2.89,5.23,2.04,11.39,2.93,14.56,8.16,2.88,4.73.9,9.76-2.72,13.41-3.63,3.67-8.75,6.02-13.49,7.91s-10.12,3.23-15.39,3.69c-5.2.46-10.47.21-15.59-.83-5.2-1.06-10.54-2.63-14.99-5.59s-7.77-8.03-6.05-13.35c1.46-4.51,6.06-7.17,10.14-9,6.07-2.72,12.65-4.44,19.2-5.53,3.29-.54,6.61-.86,9.94-.99,1.67-.06,3.37.06,5.03-.07s2.67-.59,3.59-1.87c.04-.05.03-.13,0-.19h0Z"/><path d="M172.45,193.45c-15.64,5.75-31.49,13.31-41.92,26.82-5.35,6.93-8.39,15.08-8.88,23.83-.25,4.43.15,8.89,1.06,13.22s2.65,8.65,4.39,12.87c7.12,17.26,22.07,29.74,38.11,38.53,17.64,9.68,37.01,16.47,56.72,20.43s40.86,5.65,61.15,3.22c2.5-.3,4.97-.81,7.43-1.32,1.04-.22.8-1.87-.25-1.84-9.9.25-19.83.67-29.73.42-9.9-.25-19.79-1.18-29.56-2.8-19.41-3.23-38.61-8.98-56.45-17.31-16.25-7.58-32.05-17.73-42.18-32.9-2.5-3.75-4.63-7.71-5.95-12.02-1.29-4.22-2.19-8.61-2.49-13.02-.58-8.65,1.27-17.13,5.52-24.69,8.09-14.37,23.63-22.33,38.14-28.8,1.83-.81,3.67-1.6,5.51-2.37,1.36-.56.82-2.79-.62-2.26h0Z"/><path d="M351.87,312.69c2.97-.18,5.84-1.67,8.54-2.88s5.44-2.68,8.01-4.33c1.2-.77,2.2-1.75,3.23-2.74,1.21-1.16,2.56-2.08,3.9-3.09,2.39-1.8,4.67-3.73,6.85-5.77.22-.21-.11-.54-.33-.33-2.27,2.09-4.65,4.07-7.13,5.9-1.15.84-2.26,1.69-3.57,2.25s-2.79,1.07-4.11,1.78c-2.54,1.38-5.14,2.69-7.76,3.91s-5.65,2-8.07,3.63c-.68.46-.49,1.72.45,1.66h0Z"/><path d="M390.09,286.47s.07-.03.12-.03h.09c.06,0,.12.01.18.02l.37.02c.06,0,.06-.1,0-.09l-.37.02h-.18s-.06.01-.09.02c-.05,0-.08.01-.12-.03-.03-.03-.09,0-.09.04s.06.07.09.04h0Z"/><path d="M310.2,173.33c1.01.64,2.16.67,3.32.86s2.44.4,3.66.63c2.44.45,4.87.93,7.29,1.44,4.85,1.03,9.65,2.27,14.38,3.74,9.58,2.97,18.8,7.08,27.56,11.95,4.91,2.73,9.67,5.71,14.26,8.94,1.58,1.11,3.12-1.52,1.51-2.59-16.77-11.21-35.78-19.26-55.41-23.87-2.7-.63-5.41-1.19-8.15-1.63-1.39-.22-2.79-.43-4.19-.61s-2.77-.57-4.09-.13c-.58.19-.69.95-.17,1.29h0Z"/><path d="M473.41,346.08c-.1.85-.26,1.54-.23,2.4l.06,2.06c.04,1.5.21,2.97.39,4.46.34,2.93.51,5.89,1.32,8.73.18.65,1.04.45,1.1-.15.34-2.96.03-5.95-.11-8.92-.07-1.5-.17-2.97-.37-4.46-.09-.69-.18-1.37-.27-2.06-.11-.81-.37-1.45-.6-2.23s-1.2-.53-1.29.17h0Z"/><path d="M478.27,342.34l.23-.33c.27-.47.41-.97.41-1.51,0-.54-.14-1.05-.41-1.51l-.23-.33c-.23-.43-.54-.77-.94-1.03-.23-.23-.5-.38-.81-.47-.44-.23-.91-.33-1.41-.31l-.97.13-.87.37c-.43.23-.77.54-1.03.94-.23.23-.38.5-.47.81-.23.44-.33.91-.31,1.41l.13.97.37.87c.23.43.54.77.94,1.03.23.23.5.38.81.47.44.23.91.33,1.41.31l.97-.13.87-.37c.55-.33.99-.76,1.31-1.31h0Z"/><path d="M343.17,373.32c21.53,1.42,42.17,12.63,54.9,30.08,1.77,2.42,3.39,4.95,4.86,7.56.72,1.28,1.4,2.59,2.05,3.91.32.66.61,1.35.94,2.01.4.81,1.01,1.44,1.59,2.13,1.26,1.48,3.11-.18,2.9-1.69-.4-2.84-2.13-5.35-3.63-7.75s-3.18-4.74-4.94-6.98c-3.4-4.33-7.27-8.33-11.46-11.9-8.46-7.21-18.29-12.99-28.85-16.49-5.94-1.97-12.11-3.2-18.35-3.69-1.8-.14-1.8,2.69,0,2.81h0Z"/><path d="M426.16,427.1c1.79.45,3.56.2,5.39.18s3.6.06,5.4.19c3.57.26,7.09.73,10.58,1.54,7.04,1.64,13.72,4.45,19.81,8.35,1.75,1.12,3.45,2.32,5.07,3.62.35.28.69.6,1.06.85.44.29.98.41,1.42.69.9.57,1.67,1.57,2.4,2.33.92.96,2.43-.55,1.46-1.46-.68-.64-1.41-1.23-2.09-1.88s-1.08-1.52-1.79-2.16c-1.42-1.28-3-2.42-4.56-3.53-3.1-2.2-6.4-4.12-9.84-5.74-6.88-3.25-14.18-5.39-21.74-6.28-2.12-.25-4.26-.33-6.39-.32s-4.49-.06-6.55.88c-1.2.55-.82,2.44.36,2.74h0Z"/><path d="M479.61,339.84c5.12,1.97,10.37,3.55,15.46,5.61s9.83,4.32,14.56,6.86c9.61,5.17,18.29,11.52,26.85,18.24,2.36,1.85,4.63,3.9,6.82,5.94,1.15,1.08,2.25,2.21,3.35,3.33s2.02,2.29,3.28,3.15c.8.55,1.72-.51,1.28-1.28-1.31-2.3-3.7-4.23-5.58-6.08s-3.88-3.85-5.92-5.69-4.15-3.74-6.38-5.47-4.34-3.28-6.58-4.84c-8.98-6.23-18.63-11.47-28.74-15.63-5.79-2.39-11.77-4.69-17.95-5.77-1.07-.19-1.47,1.24-.45,1.63h0Z"/><path d="M331.93,379.51c1.6-.39,3.13-.99,4.74-1.34s3.25-.38,4.89-.24c3.07.28,6.13,1.3,8.5,3.33,4.77,4.09,6.4,10.99,4.21,16.83-.81,2.15,2.63,3.07,3.44.95,2.66-7.04.48-15.74-5.34-20.57-3.01-2.49-6.88-4.04-10.8-4.17-3.6-.12-8.17.7-10.59,3.56-.62.74-.04,1.89.96,1.65h0Z"/><path d="M440,316.24c-2.14-5.2-5.22-10.19-3.97-16.02.46-2.17,1.64-4.32,3.73-5.29,1.87-.86,4.05-1.07,5.78.18,2.25,1.62,1.92,4.48,1.72,6.92s-.36,5.08,1.38,7.14c1.49,1.77,3.79,2.51,5.91,3.23,2.37.81,4.57,1.7,6.16,3.73,4.38,5.62,1.87,13.27.46,19.49-.36,1.6,1.91,2.21,2.44.67,1.26-3.64,2.29-7.22,2.3-11.12,0-3.02-.66-6.08-2.07-8.77-1.31-2.51-3.39-4.5-6.02-5.58-2.37-.97-5.49-1.13-7.39-3.01-2.33-2.32-.9-6.06-1-8.92-.09-2.47-1.14-4.66-3.31-5.94-2.02-1.19-4.75-1.8-7.06-1.21-2.68.69-4.88,2.86-6.07,5.29-1.57,3.19-1.66,6.69-.79,10.1.48,1.85,1.24,3.64,2.1,5.35.93,1.86,2.14,3.43,3.42,5.06.82,1.04,2.78-.09,2.27-1.32h0Z"/><path d="M421.3,316.86c1.43-.5,2.95-.91,4.46-1.01s2.97.22,4.43.47c2.83.49,5.47,1.56,7.82,3.22,4.33,3.05,7.12,8.27,8.01,13.4.29,1.64,2.85,1.21,2.85-.39,0-6.6-3.56-12.56-9.11-16.02-2.79-1.75-6.14-2.72-9.42-2.86-1.62-.07-3.22.32-4.8.63s-3.19.77-4.72,1.44c-.63.27-.18,1.34.47,1.11h0Z"/><path d="M414.02,306.77c.75-.25,1.51-.46,2.21-.83.65-.34,1.28-.71,1.92-1.06,1.32-.73,2.65-1.45,3.97-2.19.68-.38,1.35-.78,2.03-1.17s1.3-.87,2.02-1.07,1.27-.49,1.92-.86c.35-.2.76-.38,1.08-.63.34-.27.59-.6.96-.84.77-.49.1-1.6-.71-1.21-.4.19-.83.22-1.23.37-.38.14-.75.39-1.11.58-.66.35-1.18.68-1.74,1.17s-1.34.78-1.99,1.13c-.69.36-1.39.72-2.08,1.09-1.33.72-2.65,1.46-3.97,2.19-.64.35-1.29.68-1.92,1.06-.67.4-1.25.93-1.86,1.42-.4.33.03,1.02.5.86h0Z"/><path d="M263.65,195.94c.18,0,.18-.28,0-.28s-.18.28,0,.28h0Z"/><path d="M262.06,198.24c.06,0,.06-.09,0-.09s-.06.09,0,.09h0Z"/><path d="M262.51,196.6c-.05,3.59-.06,7.15.13,10.74.09,1.69.07,3.43.4,5.09.37,1.88.58,3.73.76,5.64.04.41.64.43.66,0,.07-1.9.15-3.76.41-5.64.24-1.68.13-3.4.12-5.09-.02-3.6-.25-7.15-.5-10.74-.09-1.25-1.95-1.28-1.97,0h0Z"/><path d="M284.57,196.28c-3.43,7.66-6.87,15.3-10.02,23.08-.42,1.02,1.36,1.78,1.8.76,3.33-7.71,6.37-15.51,9.42-23.34.27-.69-.9-1.18-1.2-.51h0Z"/><path d="M303.41,205.33c-6.51,6.31-13.26,12.55-18.43,20.05-.51.73.57,1.45,1.18.91,6.8-6.02,12.15-13.48,17.62-20.68.16-.22-.18-.46-.37-.28h0Z"/><path d="M299.37,225.95c3.91-1.79,7.59-4.07,11.25-6.3s7.43-4.16,10.72-6.73c.71-.56-.19-1.52-.91-1.18-1.94.92-3.72,2.15-5.54,3.29l-5.47,3.42c-3.55,2.22-7.12,4.44-10.39,7.06-.27.21.07.56.34.44h0Z"/><path d="M309.85,231.14c5.66-2.36,11.38-4.62,16.91-7.28,2.77-1.33,5.62-2.56,8.28-4.08s5.46-3.14,8.33-4.49c.38-.18.05-.75-.33-.57-2.9,1.37-5.88,2.47-8.88,3.61-2.79,1.06-5.48,2.45-8.19,3.7-5.58,2.58-10.97,5.55-16.41,8.42-.37.19-.11.85.29.69h0Z"/><path d="M314,238.91c4.78-1.29,9.6-2.46,14.28-4.08,1.03-.35.62-1.86-.45-1.63-4.84,1.04-9.57,2.53-14.33,3.9-1.16.33-.67,2.12.5,1.81h0Z"/><path d="M339.28,231.19c.71-.16,1.45-.28,2.14-.55l1.91-.77,3.98-1.59c.35-.14.6-.47.49-.86-.09-.33-.51-.63-.86-.49l-4.05,1.62c-.66.26-1.33.53-1.99.8s-1.31.7-1.94,1.08c-.42.25-.14.88.33.77h0Z"/><path d="M240.24,203.15c2.47,5.13,4.83,10.32,7.61,15.29.21.37.74.05.57-.33-2.37-5.17-5.17-10.13-7.85-15.14-.11-.21-.43-.03-.32.19h0Z"/><path d="M221.02,207.42c3.19,3.8,6.7,7.26,10.18,10.79,1.68,1.71,3.33,3.47,5.09,5.1s3.52,3.46,5.51,4.89c.45.32,1.1-.32.77-.77-1.4-1.92-3.16-3.58-4.79-5.31s-3.51-3.48-5.28-5.2c-3.56-3.45-7.05-6.93-10.87-10.09-.42-.35-.95.18-.6.6h0Z"/><path d="M202.25,218.34c1.76,1.19,3.48,2.24,5.37,3.21l5.2,2.68c1.74.9,3.48,1.76,5.26,2.57s3.64,1.81,5.6,2.27c.51.12,1-.55.55-.94-1.52-1.3-3.34-2.17-5.08-3.16s-3.55-1.91-5.36-2.81l-5.43-2.7c-1.84-.91-3.67-1.64-5.6-2.33-.74-.26-1.09.8-.51,1.2h0Z"/><path d="M195.57,230.79c.87.84,2.14.99,3.28,1.31l4.07,1.12c2.61.72,5.29,1.25,7.98,1.62,1.45.2,2.83.35,4.26.7l4.1,1.01,8.44,2.09c.23.06.33-.3.1-.36-2.72-.71-5.45-1.42-8.17-2.13s-5.47-1.34-8.09-2.41-5.18-1.84-7.82-2.45l-4.11-.96c-1.21-.28-2.53-.83-3.77-.48-.4.11-.55.64-.25.94h0Z"/><path d="M188.11,241.95c6.1.47,12.18.88,18.29,1.16,2.97.14,5.93.26,8.9.41s6.29.53,9.39.43c.35-.01.47-.58.09-.64-2.86-.47-5.85-.5-8.74-.72-3.13-.24-6.26-.5-9.39-.76-6.18-.5-12.34-.88-18.53-1.19-.85-.04-.83,1.25,0,1.31h0Z"/><path d="M183.9,253.82c2.7.41,5.63-.09,8.36-.25,2.89-.17,5.79-.3,8.67-.6,5.77-.6,11.55-1.21,17.33-1.71.95-.08.97-1.57,0-1.5-5.77.4-11.55.68-17.33.96-2.81.14-5.61.45-8.42.71s-5.92.18-8.6,1.03c-.6.19-.73,1.24,0,1.36h0Z"/><path d="M189.77,265.97c5.06-.77,9.92-2.11,14.86-3.41s9.69-3.03,14.59-4.39c.93-.26.53-1.7-.4-1.45-4.9,1.35-9.89,2.32-14.77,3.73s-9.77,2.77-14.51,4.71c-.5.21-.32.9.22.81h0Z"/><path d="M197.03,277.5c5-1.88,10.04-3.67,14.93-5.82,2.4-1.06,4.81-2.12,7.21-3.18,1.28-.56,2.55-1.12,3.81-1.72s2.61-1.08,3.73-1.87c.82-.58.33-1.84-.69-1.63-1.26.26-2.48.88-3.68,1.35s-2.47,1-3.7,1.52c-2.5,1.06-5,2.12-7.49,3.18-4.98,2.11-9.79,4.58-14.64,6.96-.66.32-.19,1.46.51,1.2h0Z"/><path d="M206.56,291.59c2.51-.75,4.67-2.19,6.83-3.65l6.78-4.57c4.54-3.06,8.87-6.34,13.35-9.49.49-.34.05-1.14-.47-.81-4.62,2.91-9.3,5.63-13.86,8.62l-6.62,4.35c-2.26,1.49-4.55,2.97-6.28,5.07-.17.2-.02.56.27.47h0Z"/><path d="M228.66,296.77c3.18-3.23,6.35-6.46,9.53-9.69,1.55-1.57,3.11-3.12,4.56-4.78s3.3-3.2,3.95-5.25c.12-.39-.29-.84-.69-.69-.42.15-.89.29-1.26.55-.44.31-.81.75-1.2,1.12l-2.47,2.34c-1.65,1.56-3.17,3.23-4.72,4.89-3.09,3.31-6.19,6.62-9.28,9.93-.99,1.06.57,2.63,1.59,1.59h0Z"/><path d="M251.87,300.52c2.01-3.51,3.25-7.37,4.67-11.15.69-1.83,1.43-3.65,2.04-5.5.31-.93.6-1.86.9-2.78.34-1.06.87-2.05.2-3.09-.31-.48-.91-.78-1.48-.6-1.14.35-1.36,1.18-1.77,2.2l-1.17,2.93c-.73,1.81-1.33,3.68-1.97,5.52l-1.92,5.54c-.32.92-.66,1.84-.96,2.77-.35,1.06-.49,2.18-.68,3.28-.22,1.24,1.44,2.13,2.14.9h0Z"/><path d="M270.12,276.71c-.27.87-.34,1.43-.28,2.34l.15,2.15.33,4.84c.11,1.55.3,3.08.51,4.62s.67,3.11,1.07,4.66c.15.59.97.42,1.01-.14.12-1.55.31-3.1.26-4.66s-.16-3.22-.33-4.84l-.49-4.66c-.08-.78-.16-1.55-.25-2.33-.09-.85-.29-1.38-.69-2.15-.29-.56-1.11-.38-1.29.17h0Z"/><path d="M282.03,275.44c1.87,2.71,3.68,5.46,5.79,7.99,1.02,1.23,2,2.52,3.08,3.69.57.61,1.17,1.15,1.71,1.79s1.03,1.31,1.62,1.88c.36.34.87-.09.66-.51-.36-.74-.86-1.43-1.3-2.12s-.78-1.46-1.2-2.19c-.76-1.35-1.67-2.64-2.5-3.95-1.74-2.74-3.78-5.25-5.75-7.82-.4-.52-1.05-.8-1.67-.44-.53.32-.81,1.12-.44,1.67h0Z"/><path d="M295.45,292.28c.36,0,.36-.56,0-.56s-.36.56,0,.56h0Z"/><path d="M295.45,292.37c.48,0,.48-.75,0-.75s-.48.75,0,.75h0Z"/><path d="M294.29,271.17l2.92,2.59,1.41,1.25c.25.22.5.45.75.67.32.28.66.44,1.03.63.45.23,1.06.21,1.42-.18.33-.36.48-.98.18-1.42-.22-.32-.43-.68-.72-.95-.24-.23-.51-.44-.76-.66l-1.43-1.24-2.96-2.56c-.52-.45-1.35-.55-1.86,0-.46.5-.55,1.37,0,1.86h0Z"/><path d="M299.14,263.87l2.35,1.66c.78.55,1.54,1.16,2.38,1.6.29.15.65.1.85-.17.18-.24.2-.65-.05-.86-.77-.63-1.65-1.12-2.49-1.65l-2.46-1.55c-.26-.16-.62-.05-.77.2-.16.28-.05.59.2.77h0Z"/><path d="M306.35,258.62c2.12.63,4.25,1.39,6.42,1.86s4.3,1.1,6.49,1.26c.59.04.86-.89.31-1.14-1.99-.91-4.18-1.39-6.28-2s-4.37-.97-6.53-1.43c-.94-.2-1.33,1.17-.4,1.45h0Z"/><path d="M311.35,253.79c4.27.11,8.63.45,12.86-.25.49-.08.49-.91,0-.99-4.23-.7-8.59-.36-12.86-.25-.96.02-.97,1.48,0,1.5h0Z"/><path d="M312.95,246.53l4.05.05c1.36.02,2.7-.13,4.05-.26l4.05-.39c1.34-.13,2.66-.43,3.98-.69,1-.2.75-1.76-.24-1.75-1.35.01-2.7,0-4.05.14l-4.05.44c-1.35.15-2.68.28-4,.58l-3.93.87c-.58.13-.43,1.01.14,1.01h0Z"/><path class="cls-1" d="M405.66,315c11.06.53,4.09-36.12,2.42-45.56-1.02-4.89-1.51-9.73-1.39-14.69-.03-5.19,1.62-20.41.46-25.58-1.96-7.16-7.78,5.57-9.45,10.63-4.33,13.21-2.73,47.91-1.61,51.13,1.24,2.8,2.28,6.44,6.17,17.22,1.19,3.3,1.34,6.75,3.4,6.85Z"/><path class="cls-1" d="M457.98,340.71c6.22-2.98,7.97-14.03,4.07-20.21-2.34-4.43-9.24-8.81-13.34-4.41-2.42,3.53-.41,7.93,1.03,12.16,1.89,4,2.44,14.09,8.03,12.54l.21-.08Z"/><path class="cls-1" d="M445.68,335.91c6.58-6.37-3.34-21.56-11.81-17.14-7.17,4.53,5.06,21.37,11.63,17.27l.18-.13Z"/><path class="cls-1" d="M354.46,395.14c4.9-8.78-6.7-21.2-16.1-18.77-8.7,2.33-6.07,10.93.75,13.49,1.83.77,3.34,1.61,4.52,3.22,2.23,3.18,7.67,6.67,10.69,2.28l.14-.22Z"/><path class="cls-1" d="M314.66,315.98c-1.82,10.09-7.86,22.12-8.84,32.27-.65,6.5,1.82,28.6,4.8,34.29,3.05,6.04,11.36,9.96,13.98,8.75,3.76-1.74,3.19-10.81,3-14.93-.26-5.45-1.06-27.93,1.15-33.3,8.6-20.88-4.24-26.62-5.43-35.49-1.96-14.66,6.26-20.77-4.56-31.36-5.92-5.79-.53,20.06-4.09,39.78Z"/><path class="cls-1" d="M336.31,375.03c3.53-3.88,5.22-8.89,7.59-13.62,2.02-4.25,4.29-8.46,6.15-12.87,7.53-15.47,3.52-21.67-3.68-35.84-3.56-7.02-8.66-16.32-8.37-24.63.2-5.62,2.6-16.24,3.26-21.89,1.16-8.84-1.67-11.88-5.55-4.84-3.48,6.32-8.59,35.07-8.22,42.07.28,6.29,3.22,11.93,4.24,18.09.73,4.13.64,8.41.11,12.56-1.5,9.27-3.41,20-3.8,29.94-.15,3.65-.53,8.45.54,11.38,1.27,3.32,4.57,2.98,7.6-.22l.12-.13Z"/><path class="cls-1" d="M329.05,323.87l-1.22-.64c-.21-.11-.41-.24-.64-.31s-.46-.13-.68-.2c-.15-.04-.31.05-.35.2-.04.16.06.29.2.35.22.09.44.19.66.28.2.08.43.1.64.14l1.35.27s.09-.06.04-.09h0Z"/><g class="cls-3"><path class="cls-4" d="M329,324.03c.06,0,.06-.1,0-.1s-.06.1,0,.1h0Z"/></g><path class="cls-4" d="M427.15,323.21c.12,0,.12-.19,0-.19s-.12.19,0,.19h0Z"/><path class="cls-1" d="M438.15,212.7c10.91-5.68,6.92-22.49,3.02-28.67-2.34-4.43-14.37-12.47-16.3-6.77-5.38,15.88,8.32,21.79,8.32,21.79,0,0-.85,15.28,4.75,13.73l.21-.08Z"/><path class="cls-1" d="M396.92,208.04c3.53-3.88,6.81-13.4,7.31-18.16.65-6.16,2.37-13.69-5.82-12.32s-9.37,9.5-9.75,19.45c-.15,3.65-.53,8.45.54,11.38,1.27,3.32,4.57,2.98,7.6-.22l.12-.13Z"/><path id="Path" class="cls-2" d="M412.98,199.6c-3.43,3.27,7.42,8.79,8.17,18.67s-14.42,4.09-11.2,32.58c11.64.83,6.89,2.14,18.95,3.74-1.95-5.85-1.57-5.85-2.47-14.21-1.56-17.16,7.3-3.04,5.76-26.54-12.69-.12.72-8.7-8.54-11.37,0,0-8.68-4.78-10.68-2.87Z"/></svg>